<?xml version="1.0" standalone="no"?>
<!DOCTYPE svg PUBLIC "-//W3C//DTD SVG 20010904//EN"
 "http://www.w3.org/TR/2001/REC-SVG-20010904/DTD/svg10.dtd">
<svg version="1.0" xmlns="http://www.w3.org/2000/svg"
 width="700.000000pt" height="700.000000pt" viewBox="0 0 700.000000 700.000000"
 preserveAspectRatio="xMidYMid meet">
<metadata>
Created by potrace 1.14, written by Peter Selinger 2001-2017
</metadata>
<g transform="translate(0.000000,700.000000) scale(0.100000,-0.100000)"
fill="#000000" stroke="none">
<path d="M799 6114 c-100 -30 -173 -102 -201 -199 -22 -73 -20 -4778 1 -4840
28 -80 76 -133 161 -173 l55 -27 2673 0 c2429 0 2677 1 2722 16 65 21 113 55
149 104 61 85 58 -29 57 1940 l-1 1800 -25 50 c-35 71 -75 111 -139 143 l-56
27 -945 0 -945 0 -57 -28 c-64 -32 -111 -80 -142 -146 -20 -44 -21 -63 -22
-511 -1 -256 -3 -468 -3 -472 -1 -5 -131 -8 -291 -8 l-290 0 0 1043 c0 678 -4
1055 -10 1079 -25 87 -109 174 -195 200 -56 16 -2439 18 -2496 2z m951 -1154
c0 -269 -1 -290 -17 -291 -87 -5 -547 -2 -556 3 -10 6 -18 516 -8 561 3 16 25
17 292 17 l289 0 0 -290z m1166 1 l1 -289 -26 -4 c-14 -1 -145 -3 -291 -2
l-265 0 -1 292 0 292 291 0 291 0 0 -289z m-1168 -1169 l2 -292 -290 0 c-269
0 -290 1 -291 18 -5 82 -3 549 3 557 4 6 111 10 290 10 l283 -1 3 -292z m1158
289 c7 -1 10 -94 10 -291 l0 -290 -291 0 -291 0 1 293 c1 160 3 292 4 292 100
0 559 -3 567 -4z m2629 -2 c4 -5 8 -289 6 -501 l-1 -78 -290 0 -290 0 -1 33
c-4 237 1 541 9 546 12 7 559 7 567 0z m-3785 -1454 l0 -291 -290 0 c-259 -1
-290 1 -291 15 -1 21 -1 498 0 536 l1 31 290 0 290 0 0 -291z m1165 0 l0 -290
-291 -1 -290 0 1 290 c1 160 3 291 3 291 1 1 131 1 290 0 l287 0 0 -290z
m2625 250 c1 -94 1 -502 1 -521 -1 -20 -5 -20 -291 -20 l-290 0 -1 35 c-2 179
0 531 4 538 3 5 134 9 291 9 l286 0 0 -41z"/>
</g>
</svg>
